<svg width="20" height="19" viewBox="0 0 20 19" fill="none" xmlns="http://www.w3.org/2000/svg">
<path d="M18.3027 0.984366C18.0138 0.996936 17.7486 1.08005 17.5156 1.17187C17.3004 1.25662 16.5275 1.58146 15.2969 2.09765C14.0662 2.61383 12.4355 3.29823 10.6973 4.02929C7.22084 5.49141 3.31424 7.13612 1.3125 7.97851C1.24376 8.00715 0.964585 8.09261 0.65625 8.32812C0.3472 8.56417 0.00390625 9.07645 0.00390625 9.63671C0.00390625 10.0887 0.22952 10.549 0.501953 10.8125C0.774386 11.076 1.05049 11.1992 1.28125 11.291V11.2891C2.06128 11.5998 4.39069 12.5319 4.94531 12.7539C5.14204 13.3434 5.98659 15.8673 6.1875 16.5019H6.18555C6.32756 16.9512 6.46598 17.2439 6.6582 17.4883C6.75432 17.6105 6.86904 17.7212 7.00977 17.8086C7.06376 17.8421 7.12355 17.8681 7.18359 17.8926C7.19196 17.8961 7.20059 17.897 7.20898 17.9004L7.18555 17.8945C7.20296 17.9015 7.21858 17.9118 7.23633 17.918C7.26524 17.9279 7.28529 17.9276 7.32422 17.9355C7.46122 17.9777 7.59798 18.0058 7.72461 18.0058C8.26822 18.0058 8.60156 17.7109 8.60156 17.7109L8.62305 17.6953L10.9707 15.709L13.8457 18.3691C13.8982 18.4433 14.3096 19 15.2617 19C15.8298 19 16.279 18.7188 16.5664 18.4238C16.8538 18.1289 17.0328 17.8271 17.1133 17.418L17.1152 17.416C17.1794 17.0858 19.9316 3.26562 19.9316 3.26562L19.9258 3.28905C20.0114 2.90671 20.0367 2.53695 19.9355 2.16015C19.8344 1.78334 19.5613 1.41562 19.2324 1.22265C18.9036 1.02968 18.5917 0.971795 18.3027 0.984366ZM17.9082 3.17382C17.7994 3.71985 15.334 16.1059 15.1816 16.8828L11.0293 13.041L8.22266 15.4141L9 12.375C9 12.375 14.3625 6.94685 14.6855 6.63085C14.9455 6.37785 15 6.28916 15 6.20116C15 6.08416 14.9398 5.99999 14.8008 5.99999C14.6758 5.99999 14.506 6.11977 14.416 6.17577C13.2724 6.88878 8.40128 9.66468 6.00586 11.0273C5.8617 10.9695 3.6974 10.1004 2.53125 9.63476C4.60551 8.76176 8.16116 7.2658 11.4727 5.87304C13.2106 5.1421 14.8408 4.45709 16.0703 3.9414C17.1082 3.50609 17.6495 3.28069 17.9082 3.17382ZM15.1523 17.0254H15.1543L15.1523 17.0312C15.1536 17.0248 15.1514 17.0304 15.1523 17.0254Z" fill="white"/>
</svg>
